<mxfile host="app.diagrams.net" modified="2023-10-04T17:04:20.578Z" agent="Mozilla/5.0 (Windows NT 10.0; Win64; x64) AppleWebKit/537.36 (KHTML, like Gecko) Chrome/117.0.0.0 Safari/537.36" etag="0fTvCmfFJTuS-LjyfNIk" version="21.8.2" type="device">
  <diagram name="Lapa-1" id="j-_7VGHLRjzNCakQfMWc">
    <mxGraphModel dx="2074" dy="1150" grid="1" gridSize="10" guides="1" tooltips="1" connect="1" arrows="1" fold="1" page="1" pageScale="1" pageWidth="827" pageHeight="1169" math="0" shadow="0">
      <root>
        <mxCell id="0" />
        <mxCell id="1" parent="0" />
        <mxCell id="TWWx9PtAK9WIx6-3KpzQ-1" value="начало и конец&amp;nbsp; алгоритма" style="rounded=1;whiteSpace=wrap;html=1;" vertex="1" parent="1">
          <mxGeometry x="40" y="70" width="120" height="60" as="geometry" />
        </mxCell>
        <mxCell id="TWWx9PtAK9WIx6-3KpzQ-5" value="Опероционыи блок.&lt;br&gt;Блок вычесления&lt;br&gt;&lt;span id=&quot;docs-internal-guid-e5a6055f-7fff-bd05-0e52-e50ff6fc9528&quot;&gt;&lt;/span&gt;" style="rounded=0;whiteSpace=wrap;html=1;" vertex="1" parent="1">
          <mxGeometry x="40" y="160" width="120" height="60" as="geometry" />
        </mxCell>
        <mxCell id="TWWx9PtAK9WIx6-3KpzQ-6" value="Блок Вод/вывод" style="shape=parallelogram;perimeter=parallelogramPerimeter;whiteSpace=wrap;html=1;fixedSize=1;" vertex="1" parent="1">
          <mxGeometry x="40" y="560" width="120" height="60" as="geometry" />
        </mxCell>
        <mxCell id="TWWx9PtAK9WIx6-3KpzQ-7" value="цикл с параметром" style="shape=hexagon;perimeter=hexagonPerimeter2;whiteSpace=wrap;html=1;fixedSize=1;" vertex="1" parent="1">
          <mxGeometry x="40" y="250" width="120" height="80" as="geometry" />
        </mxCell>
        <mxCell id="TWWx9PtAK9WIx6-3KpzQ-8" value="" style="curved=1;endArrow=classic;html=1;rounded=0;exitX=0.992;exitY=0.425;exitDx=0;exitDy=0;exitPerimeter=0;" edge="1" parent="1" target="TWWx9PtAK9WIx6-3KpzQ-9">
          <mxGeometry width="50" height="50" relative="1" as="geometry">
            <mxPoint x="149.99999999999997" y="274" as="sourcePoint" />
            <mxPoint x="140" y="370" as="targetPoint" />
            <Array as="points">
              <mxPoint x="270.96" y="240" />
              <mxPoint x="160" y="300" />
              <mxPoint x="220" y="320" />
            </Array>
          </mxGeometry>
        </mxCell>
        <mxCell id="TWWx9PtAK9WIx6-3KpzQ-9" value="" style="rounded=0;whiteSpace=wrap;html=1;" vertex="1" parent="1">
          <mxGeometry x="40" y="350" width="120" height="60" as="geometry" />
        </mxCell>
        <mxCell id="TWWx9PtAK9WIx6-3KpzQ-10" value="" style="endArrow=classic;html=1;rounded=0;entryX=0.5;entryY=1;entryDx=0;entryDy=0;" edge="1" parent="1" source="TWWx9PtAK9WIx6-3KpzQ-9" target="TWWx9PtAK9WIx6-3KpzQ-7">
          <mxGeometry width="50" height="50" relative="1" as="geometry">
            <mxPoint x="390" y="370" as="sourcePoint" />
            <mxPoint x="390" y="330" as="targetPoint" />
            <Array as="points" />
          </mxGeometry>
        </mxCell>
        <mxCell id="TWWx9PtAK9WIx6-3KpzQ-11" value="Лог условия блок" style="rhombus;whiteSpace=wrap;html=1;" vertex="1" parent="1">
          <mxGeometry x="10" y="440" width="190" height="80" as="geometry" />
        </mxCell>
      </root>
    </mxGraphModel>
  </diagram>
</mxfile>
